<svg id="visual" viewBox="0 0 900 600" width="900" height="600" xmlns="http://www.w3.org/2000/svg" xmlns:xlink="http://www.w3.org/1999/xlink" version="1.1"><rect x="0" y="0" width="900" height="600" fill="#00bf63"></rect><defs><linearGradient id="grad1_0" x1="33.3%" y1="0%" x2="100%" y2="100%"><stop offset="20%" stop-color="#001b3d" stop-opacity="1"></stop><stop offset="80%" stop-color="#001b3d" stop-opacity="1"></stop></linearGradient></defs><defs><linearGradient id="grad1_1" x1="33.3%" y1="0%" x2="100%" y2="100%"><stop offset="20%" stop-color="#001b3d" stop-opacity="1"></stop><stop offset="80%" stop-color="#003a65" stop-opacity="1"></stop></linearGradient></defs><defs><linearGradient id="grad1_2" x1="33.3%" y1="0%" x2="100%" y2="100%"><stop offset="20%" stop-color="#005c82" stop-opacity="1"></stop><stop offset="80%" stop-color="#003a65" stop-opacity="1"></stop></linearGradient></defs><defs><linearGradient id="grad1_3" x1="33.3%" y1="0%" x2="100%" y2="100%"><stop offset="20%" stop-color="#005c82" stop-opacity="1"></stop><stop offset="80%" stop-color="#007e8b" stop-opacity="1"></stop></linearGradient></defs><defs><linearGradient id="grad1_4" x1="33.3%" y1="0%" x2="100%" y2="100%"><stop offset="20%" stop-color="#00a07f" stop-opacity="1"></stop><stop offset="80%" stop-color="#007e8b" stop-opacity="1"></stop></linearGradient></defs><defs><linearGradient id="grad1_5" x1="33.3%" y1="0%" x2="100%" y2="100%"><stop offset="20%" stop-color="#00a07f" stop-opacity="1"></stop><stop offset="80%" stop-color="#00bf63" stop-opacity="1"></stop></linearGradient></defs><defs><linearGradient id="grad2_0" x1="0%" y1="0%" x2="66.7%" y2="100%"><stop offset="20%" stop-color="#001b3d" stop-opacity="1"></stop><stop offset="80%" stop-color="#001b3d" stop-opacity="1"></stop></linearGradient></defs><defs><linearGradient id="grad2_1" x1="0%" y1="0%" x2="66.7%" y2="100%"><stop offset="20%" stop-color="#003a65" stop-opacity="1"></stop><stop offset="80%" stop-color="#001b3d" stop-opacity="1"></stop></linearGradient></defs><defs><linearGradient id="grad2_2" x1="0%" y1="0%" x2="66.7%" y2="100%"><stop offset="20%" stop-color="#003a65" stop-opacity="1"></stop><stop offset="80%" stop-color="#005c82" stop-opacity="1"></stop></linearGradient></defs><defs><linearGradient id="grad2_3" x1="0%" y1="0%" x2="66.7%" y2="100%"><stop offset="20%" stop-color="#007e8b" stop-opacity="1"></stop><stop offset="80%" stop-color="#005c82" stop-opacity="1"></stop></linearGradient></defs><defs><linearGradient id="grad2_4" x1="0%" y1="0%" x2="66.7%" y2="100%"><stop offset="20%" stop-color="#007e8b" stop-opacity="1"></stop><stop offset="80%" stop-color="#00a07f" stop-opacity="1"></stop></linearGradient></defs><defs><linearGradient id="grad2_5" x1="0%" y1="0%" x2="66.7%" y2="100%"><stop offset="20%" stop-color="#00bf63" stop-opacity="1"></stop><stop offset="80%" stop-color="#00a07f" stop-opacity="1"></stop></linearGradient></defs><g transform="translate(900, 0)"><path d="M0 486.7C-49.5 448.2 -99 409.6 -162.6 392.6C-226.3 375.7 -304.2 380.3 -344.2 344.2C-384.2 308.1 -386.3 231.4 -403.7 167.2C-421.2 103.1 -454 51.5 -486.7 0L0 0Z" fill="#00b073"></path><path d="M0 405.6C-41.2 373.5 -82.5 341.4 -135.5 327.2C-188.6 313.1 -253.5 316.9 -286.8 286.8C-320.1 256.8 -321.9 192.8 -336.4 139.4C-351 85.9 -378.3 43 -405.6 0L0 0Z" fill="#008f88"></path><path d="M0 324.5C-33 298.8 -66 273.1 -108.4 261.8C-150.9 250.4 -202.8 253.5 -229.5 229.5C-256.1 205.4 -257.5 154.2 -269.2 111.5C-280.8 68.7 -302.6 34.4 -324.5 0L0 0Z" fill="#006d89"></path><path d="M0 243.4C-24.7 224.1 -49.5 204.8 -81.3 196.3C-113.2 187.8 -152.1 190.1 -172.1 172.1C-192.1 154.1 -193.1 115.7 -201.9 83.6C-210.6 51.5 -227 25.8 -243.4 0L0 0Z" fill="#004b76"></path><path d="M0 162.2C-16.5 149.4 -33 136.5 -54.2 130.9C-75.4 125.2 -101.4 126.8 -114.7 114.7C-128.1 102.7 -128.8 77.1 -134.6 55.7C-140.4 34.4 -151.3 17.2 -162.2 0L0 0Z" fill="#002a52"></path><path d="M0 81.1C-8.2 74.7 -16.5 68.3 -27.1 65.4C-37.7 62.6 -50.7 63.4 -57.4 57.4C-64 51.4 -64.4 38.6 -67.3 27.9C-70.2 17.2 -75.7 8.6 -81.1 0L0 0Z" fill="#001b3d"></path></g><g transform="translate(0, 600)"><path d="M0 -486.7C67 -482.9 133.9 -479 186.3 -449.7C238.6 -420.4 276.3 -365.7 318.9 -318.9C361.5 -272.1 409.1 -233.2 437.9 -181.4C466.7 -129.6 476.7 -64.8 486.7 0L0 0Z" fill="#00b073"></path><path d="M0 -405.6C55.8 -402.4 111.6 -399.2 155.2 -374.7C198.8 -350.3 230.2 -304.8 265.8 -265.8C301.3 -226.8 340.9 -194.4 364.9 -151.2C388.9 -108 397.3 -54 405.6 0L0 0Z" fill="#008f88"></path><path d="M0 -324.5C44.6 -321.9 89.3 -319.3 124.2 -299.8C159.1 -280.3 184.2 -243.8 212.6 -212.6C241 -181.4 272.7 -155.5 291.9 -120.9C311.1 -86.4 317.8 -43.2 324.5 0L0 0Z" fill="#006d89"></path><path d="M0 -243.4C33.5 -241.4 67 -239.5 93.1 -224.8C119.3 -210.2 138.1 -182.9 159.5 -159.5C180.8 -136.1 204.6 -116.6 219 -90.7C233.4 -64.8 238.4 -32.4 243.4 0L0 0Z" fill="#004b76"></path><path d="M0 -162.2C22.3 -161 44.6 -159.7 62.1 -149.9C79.5 -140.1 92.1 -121.9 106.3 -106.3C120.5 -90.7 136.4 -77.7 146 -60.5C155.6 -43.2 158.9 -21.6 162.2 0L0 0Z" fill="#002a52"></path><path d="M0 -81.1C11.2 -80.5 22.3 -79.8 31 -74.9C39.8 -70.1 46 -61 53.2 -53.2C60.3 -45.4 68.2 -38.9 73 -30.2C77.8 -21.6 79.5 -10.8 81.1 0L0 0Z" fill="#001b3d"></path></g></svg>