<svg id="visual" viewBox="0 0 900 600" width="900" height="600" xmlns="http://www.w3.org/2000/svg" xmlns:xlink="http://www.w3.org/1999/xlink" version="1.1"><rect x="0" y="0" width="900" height="600" fill="#001b3d"></rect><path d="M0 494L21.5 469.3C43 444.7 86 395.3 128.8 368.7C171.7 342 214.3 338 257.2 365C300 392 343 450 385.8 466.8C428.7 483.7 471.3 459.3 514.2 458.5C557 457.7 600 480.3 642.8 478.3C685.7 476.3 728.3 449.7 771.2 428.7C814 407.7 857 392.3 878.5 384.7L900 377L900 601L878.5 601C857 601 814 601 771.2 601C728.3 601 685.7 601 642.8 601C600 601 557 601 514.2 601C471.3 601 428.7 601 385.8 601C343 601 300 601 257.2 601C214.3 601 171.7 601 128.8 601C86 601 43 601 21.5 601L0 601Z" fill="#00bf63" stroke-linecap="round" stroke-linejoin="miter"></path></svg>