<svg id="visual" viewBox="0 0 900 600" width="900" height="600" xmlns="http://www.w3.org/2000/svg" xmlns:xlink="http://www.w3.org/1999/xlink" version="1.1"><rect x="0" y="0" width="900" height="600" fill="#001b3d"></rect><defs><linearGradient id="grad1_0" x1="33.3%" y1="100%" x2="100%" y2="0%"><stop offset="20%" stop-color="#00bf63" stop-opacity="1"></stop><stop offset="80%" stop-color="#00bf63" stop-opacity="1"></stop></linearGradient></defs><defs><linearGradient id="grad1_1" x1="33.3%" y1="100%" x2="100%" y2="0%"><stop offset="20%" stop-color="#00bf63" stop-opacity="1"></stop><stop offset="80%" stop-color="#009884" stop-opacity="1"></stop></linearGradient></defs><defs><linearGradient id="grad1_2" x1="33.3%" y1="100%" x2="100%" y2="0%"><stop offset="20%" stop-color="#006d89" stop-opacity="1"></stop><stop offset="80%" stop-color="#009884" stop-opacity="1"></stop></linearGradient></defs><defs><linearGradient id="grad1_3" x1="33.3%" y1="100%" x2="100%" y2="0%"><stop offset="20%" stop-color="#006d89" stop-opacity="1"></stop><stop offset="80%" stop-color="#00426e" stop-opacity="1"></stop></linearGradient></defs><defs><linearGradient id="grad1_4" x1="33.3%" y1="100%" x2="100%" y2="0%"><stop offset="20%" stop-color="#001b3d" stop-opacity="1"></stop><stop offset="80%" stop-color="#00426e" stop-opacity="1"></stop></linearGradient></defs><defs><linearGradient id="grad2_0" x1="0%" y1="100%" x2="66.7%" y2="0%"><stop offset="20%" stop-color="#00bf63" stop-opacity="1"></stop><stop offset="80%" stop-color="#00bf63" stop-opacity="1"></stop></linearGradient></defs><defs><linearGradient id="grad2_1" x1="0%" y1="100%" x2="66.7%" y2="0%"><stop offset="20%" stop-color="#009884" stop-opacity="1"></stop><stop offset="80%" stop-color="#00bf63" stop-opacity="1"></stop></linearGradient></defs><defs><linearGradient id="grad2_2" x1="0%" y1="100%" x2="66.7%" y2="0%"><stop offset="20%" stop-color="#009884" stop-opacity="1"></stop><stop offset="80%" stop-color="#006d89" stop-opacity="1"></stop></linearGradient></defs><defs><linearGradient id="grad2_3" x1="0%" y1="100%" x2="66.7%" y2="0%"><stop offset="20%" stop-color="#00426e" stop-opacity="1"></stop><stop offset="80%" stop-color="#006d89" stop-opacity="1"></stop></linearGradient></defs><defs><linearGradient id="grad2_4" x1="0%" y1="100%" x2="66.7%" y2="0%"><stop offset="20%" stop-color="#00426e" stop-opacity="1"></stop><stop offset="80%" stop-color="#001b3d" stop-opacity="1"></stop></linearGradient></defs><g transform="translate(900, 600)"><path d="M-351.5 0C-327.9 -52.8 -304.3 -105.6 -278 -160.5C-251.6 -215.4 -222.6 -272.3 -175.8 -304.4C-129 -336.6 -64.5 -344.1 0 -351.5L0 0Z" fill="#002e57"></path><path d="M-281.2 0C-262.4 -42.3 -243.5 -84.5 -222.4 -128.4C-201.3 -172.3 -178 -217.8 -140.6 -243.6C-103.2 -269.3 -51.6 -275.3 0 -281.2L0 0Z" fill="#00587f"></path><path d="M-210.9 0C-196.8 -31.7 -182.6 -63.4 -166.8 -96.3C-151 -129.2 -133.5 -163.4 -105.5 -182.7C-77.4 -202 -38.7 -206.4 0 -210.9L0 0Z" fill="#00838b"></path><path d="M-140.6 0C-131.2 -21.1 -121.7 -42.3 -111.2 -64.2C-100.7 -86.1 -89 -108.9 -70.3 -121.8C-51.6 -134.6 -25.8 -137.6 0 -140.6L0 0Z" fill="#00ac76"></path><path d="M-70.3 0C-65.6 -10.6 -60.9 -21.1 -55.6 -32.1C-50.3 -43.1 -44.5 -54.5 -35.2 -60.9C-25.8 -67.3 -12.9 -68.8 0 -70.3L0 0Z" fill="#00bf63"></path></g><g transform="translate(0, 0)"><path d="M351.5 0C330.2 54.2 309 108.3 282.3 163C255.7 217.7 223.7 272.9 175.8 304.4C127.8 336 63.9 343.7 0 351.5L0 0Z" fill="#002e57"></path><path d="M281.2 0C264.2 43.3 247.2 86.6 225.9 130.4C204.6 174.2 179 218.3 140.6 243.6C102.3 268.8 51.1 275 0 281.2L0 0Z" fill="#00587f"></path><path d="M210.9 0C198.1 32.5 185.4 65 169.4 97.8C153.4 130.6 134.2 163.8 105.5 182.7C76.7 201.6 38.3 206.2 0 210.9L0 0Z" fill="#00838b"></path><path d="M140.6 0C132.1 21.7 123.6 43.3 112.9 65.2C102.3 87.1 89.5 109.2 70.3 121.8C51.1 134.4 25.6 137.5 0 140.6L0 0Z" fill="#00ac76"></path><path d="M70.3 0C66 10.8 61.8 21.7 56.5 32.6C51.1 43.5 44.7 54.6 35.2 60.9C25.6 67.2 12.8 68.7 0 70.3L0 0Z" fill="#00bf63"></path></g></svg>