<?xml version="1.0" encoding="UTF-8"?>
<!DOCTYPE svg PUBLIC "-//W3C//DTD SVG 1.1//EN" "http://www.w3.org/Graphics/SVG/1.1/DTD/svg11.dtd">
<svg xmlns="http://www.w3.org/2000/svg" version="1.1" width="288px" height="77px" style="shape-rendering:geometricPrecision; text-rendering:geometricPrecision; image-rendering:optimizeQuality; fill-rule:evenodd; clip-rule:evenodd" xmlns:xlink="http://www.w3.org/1999/xlink">
<g><path style="opacity:1" fill="#f7f8f8" d="M -0.5,-0.5 C 95.5,-0.5 191.5,-0.5 287.5,-0.5C 287.5,25.1667 287.5,50.8333 287.5,76.5C 191.5,76.5 95.5,76.5 -0.5,76.5C -0.5,50.8333 -0.5,25.1667 -0.5,-0.5 Z"/></g>
<g><path style="opacity:1" fill="#15bd64" d="M 113.5,11.5 C 116.272,11.22 118.772,11.8866 121,13.5C 121.5,24.8284 121.667,36.1618 121.5,47.5C 123.144,47.2865 124.644,47.6198 126,48.5C 128.253,57.0733 125.086,59.9066 116.5,57C 113.227,56.0596 111.394,53.8929 111,50.5C 110.333,38.1667 110.333,25.8333 111,13.5C 111.995,12.9341 112.828,12.2674 113.5,11.5 Z"/></g>
<g><path style="opacity:1" fill="#041d3c" d="M 261.5,27.5 C 261.783,28.2891 262.283,28.9558 263,29.5C 263.499,24.5111 263.666,19.5111 263.5,14.5C 266.174,10.8732 269.341,10.5399 273,13.5C 273.667,27.5 273.667,41.5 273,55.5C 269.26,58.4133 265.926,58.08 263,54.5C 254.748,59.1965 248.415,57.1965 244,48.5C 240.319,38.7016 243.153,31.5349 252.5,27C 255.555,26.3658 258.555,26.5325 261.5,27.5 Z"/></g>
<g><path style="opacity:1" fill="#07bb5f" d="M 8.5,14.5 C 15.5079,14.3337 22.5079,14.5004 29.5,15C 39.8915,19.2962 43.0582,26.7962 39,37.5C 38.3645,38.9663 37.5312,40.2997 36.5,41.5C 39.1897,45.5198 40.6897,49.8531 41,54.5C 38.6833,57.0965 35.85,57.9299 32.5,57C 30.1532,53.472 28.4865,49.6387 27.5,45.5C 24.1667,45.5 20.8333,45.5 17.5,45.5C 17.8226,49.226 17.4892,52.8927 16.5,56.5C 13.8333,57.8333 11.1667,57.8333 8.5,56.5C 7.18598,42.437 7.18598,28.437 8.5,14.5 Z"/></g>
<g><path style="opacity:1" fill="#041d3c" d="M 147.5,14.5 C 149.792,14.2436 151.959,14.5769 154,15.5C 159.333,26.1667 164.667,36.8333 170,47.5C 173.112,53.1638 171.612,56.8304 165.5,58.5C 162.415,56.2832 160.415,53.2832 159.5,49.5C 153.5,48.1667 147.5,48.1667 141.5,49.5C 140.294,52.0794 138.961,54.5794 137.5,57C 134.15,57.9299 131.317,57.0965 129,54.5C 128.333,53.5 128.333,52.5 129,51.5C 135.196,39.109 141.362,26.7757 147.5,14.5 Z"/></g>
<g><path style="opacity:1" fill="#adb3bf" d="M 263.5,14.5 C 263.666,19.5111 263.499,24.5111 263,29.5C 262.283,28.9558 261.783,28.2891 261.5,27.5C 262.167,23.1667 262.833,18.8333 263.5,14.5 Z"/></g>
<g><path style="opacity:1" fill="#aee7cb" d="M 26.5,25.5 C 23.8333,25.5 21.1667,25.5 18.5,25.5C 18.5,28.5 18.5,31.5 18.5,34.5C 21.1667,34.5 23.8333,34.5 26.5,34.5C 23.7131,35.4767 20.7131,35.81 17.5,35.5C 17.5,31.8333 17.5,28.1667 17.5,24.5C 20.7131,24.19 23.7131,24.5233 26.5,25.5 Z"/></g>
<g><path style="opacity:1" fill="#f4f8f6" d="M 26.5,25.5 C 30.7022,26.9518 31.5355,29.6185 29,33.5C 28.3292,34.2524 27.4959,34.5858 26.5,34.5C 23.8333,34.5 21.1667,34.5 18.5,34.5C 18.5,31.5 18.5,28.5 18.5,25.5C 21.1667,25.5 23.8333,25.5 26.5,25.5 Z"/></g>
<g><path style="opacity:1" fill="#14bd63" d="M 54.5,25.5 C 62.9992,24.0391 69.1658,27.0391 73,34.5C 73.8933,37.9162 73.3933,41.0828 71.5,44C 65.6098,45.2453 59.6098,45.912 53.5,46C 55.1692,48.0847 57.3359,49.2514 60,49.5C 63.1135,48.3425 66.2802,47.8425 69.5,48C 72.5135,51.5556 72.1802,54.5556 68.5,57C 48.3209,61.3626 40.1543,53.5292 44,33.5C 46.8552,29.7893 50.3552,27.1226 54.5,25.5 Z"/></g>
<g><path style="opacity:1" fill="#14bd63" d="M 88.5,25.5 C 96.9992,24.0391 103.166,27.0391 107,34.5C 107.893,37.9162 107.393,41.0828 105.5,44C 99.6098,45.2453 93.6098,45.912 87.5,46C 89.1692,48.0847 91.3359,49.2514 94,49.5C 97.1135,48.3425 100.28,47.8425 103.5,48C 106.514,51.5556 106.18,54.5556 102.5,57C 82.3209,61.3626 74.1543,53.5292 78,33.5C 80.8552,29.7893 84.3552,27.1226 88.5,25.5 Z"/></g>
<g><path style="opacity:1" fill="#031b3b" d="M 182.5,26.5 C 186.516,25.8999 190.016,26.8999 193,29.5C 193.374,28.5838 193.874,27.7504 194.5,27C 197.099,26.231 199.599,26.3977 202,27.5C 202.667,38.5 202.667,49.5 202,60.5C 198.127,68.8527 191.627,72.0194 182.5,70C 175.049,68.3494 173.715,64.6828 178.5,59C 181.257,59.6012 184.091,60.4345 187,61.5C 191.804,61.3666 193.471,59.0333 192,54.5C 182.721,58.0298 176.388,55.0298 173,45.5C 171.555,36.7979 174.722,30.4646 182.5,26.5 Z"/></g>
<g><path style="opacity:1" fill="#081f3e" d="M 217.5,26.5 C 221.007,26.3067 224.34,26.9733 227.5,28.5C 231.035,25.872 234.535,25.872 238,28.5C 238.667,37.1667 238.667,45.8333 238,54.5C 236.334,57.3788 233.834,58.2121 230.5,57C 229.333,56.5 228.5,55.6667 228,54.5C 217.435,59.3898 210.435,56.0565 207,44.5C 206.612,36.2803 210.112,30.2803 217.5,26.5 Z"/></g>
<g><path style="opacity:1" fill="#e5e7ea" d="M 149.5,32.5 C 151.731,34.0762 153.397,36.2428 154.5,39C 151.833,39.6667 149.167,39.6667 146.5,39C 147.793,36.9481 148.793,34.7814 149.5,32.5 Z"/></g>
<g><path style="opacity:1" fill="#f2f8f5" d="M 56.5,35.5 C 60.2407,34.5985 62.2407,35.9319 62.5,39.5C 59.4281,39.8174 56.4281,39.4841 53.5,38.5C 54.3398,37.265 55.3398,36.265 56.5,35.5 Z"/></g>
<g><path style="opacity:1" fill="#f2f8f5" d="M 90.5,35.5 C 94.2407,34.5985 96.2407,35.9319 96.5,39.5C 93.4281,39.8174 90.4281,39.4841 87.5,38.5C 88.3398,37.265 89.3398,36.265 90.5,35.5 Z"/></g>
<g><path style="opacity:1" fill="#edeff0" d="M 185.5,36.5 C 190.987,35.9615 193.153,38.2949 192,43.5C 189.419,47.0567 186.419,47.39 183,44.5C 181.837,41.0289 182.67,38.3623 185.5,36.5 Z"/></g>
<g><path style="opacity:1" fill="#eaecee" d="M 220.5,36.5 C 225.813,36.6438 227.979,39.3105 227,44.5C 222.094,49.0313 218.927,48.0313 217.5,41.5C 217.323,39.0321 218.323,37.3654 220.5,36.5 Z"/></g>
<g><path style="opacity:1" fill="#e8eaec" d="M 255.5,36.5 C 261.555,36.0522 263.721,38.7189 262,44.5C 259.142,48.3516 256.142,48.3516 253,44.5C 252.018,41.2253 252.851,38.5586 255.5,36.5 Z"/></g>
</svg>
