<svg id="visual" viewBox="0 0 900 600" width="900" height="600" xmlns="http://www.w3.org/2000/svg" xmlns:xlink="http://www.w3.org/1999/xlink" version="1.1"><rect x="0" y="0" width="900" height="600" fill="#001b3d"></rect><path d="M0 488L21.5 484.5C43 481 86 474 128.8 468C171.7 462 214.3 457 257.2 461.2C300 465.3 343 478.7 385.8 465.2C428.7 451.7 471.3 411.3 514.2 392.7C557 374 600 377 642.8 371.2C685.7 365.3 728.3 350.7 771.2 345C814 339.3 857 342.7 878.5 344.3L900 346L900 601L878.5 601C857 601 814 601 771.2 601C728.3 601 685.7 601 642.8 601C600 601 557 601 514.2 601C471.3 601 428.7 601 385.8 601C343 601 300 601 257.2 601C214.3 601 171.7 601 128.8 601C86 601 43 601 21.5 601L0 601Z" fill="#00bf63" stroke-linecap="round" stroke-linejoin="miter"></path></svg>