<svg id="visual" viewBox="0 0 900 600" width="900" height="600" xmlns="http://www.w3.org/2000/svg" xmlns:xlink="http://www.w3.org/1999/xlink" version="1.1"><rect x="0" y="0" width="900" height="600" fill="#001b3d"></rect><path d="M0 544L21.5 542.2C43 540.3 86 536.7 128.8 533.5C171.7 530.3 214.3 527.7 257.2 529.8C300 532 343 539 385.8 532.3C428.7 525.7 471.3 505.3 514.2 496C557 486.7 600 488.3 642.8 485.3C685.7 482.3 728.3 474.7 771.2 471.8C814 469 857 471 878.5 472L900 473L900 601L878.5 601C857 601 814 601 771.2 601C728.3 601 685.7 601 642.8 601C600 601 557 601 514.2 601C471.3 601 428.7 601 385.8 601C343 601 300 601 257.2 601C214.3 601 171.7 601 128.8 601C86 601 43 601 21.5 601L0 601Z" fill="#00bf63" stroke-linecap="round" stroke-linejoin="miter"></path></svg>